<?xml version="1.0" encoding="utf-8"?>
<!-- Generator: Adobe Illustrator 20.0.0, SVG Export Plug-In . SVG Version: 6.00 Build 0)  -->
<svg version="1.1" id="Layer_1" xmlns="http://www.w3.org/2000/svg" xmlns:xlink="http://www.w3.org/1999/xlink" x="0px" y="0px"
	 viewBox="0 0 512 640" style="enable-background:new 0 0 512 640;" xml:space="preserve">
<style type="text/css">
	.st0{fill:#337ab7;}
</style>
<g>
	<path class="st0" d="M418.8,127.8c-38-29.8-82.1-13.2-100.1-0.2l-19.1,13.8l23.5,1.7c12.3,0.9,46.8,6.8,58.7,23.5
		c4.3,6,5.3,13,3.1,21.5c-1.6,5.9-4.8,9.9-9.9,12.3c-9.4,4.4-22.6,2.5-32.5-1.5c-5.6-8.7-14.3-16.7-25.5-22.8
		c-17.7-9.7-42.6-15-61-6.5c-18.4-8.5-43.3-3.2-61,6.5c-11.2,6.1-19.8,14.1-25.5,22.8c-9.9,4-23.1,5.8-32.5,1.4
		c-5.1-2.4-8.3-6.4-9.9-12.3c-2.2-8.4-1.2-15.4,3.1-21.5c12-16.7,46.4-22.6,58.7-23.5l23.5-1.7l-19.1-13.8
		c-18-13-62.1-29.6-100.1,0.2c-26.2,20.6-32.8,72-13.9,107.8c7,13.3,25.9,39.2,65.9,39.2c8.8,0,18.7-1.4,29.7-4.3
		c6.8,16.7,15,33.7,21.6,47.3c2.3,4.7,4.3,8.9,6,12.5c-3.9,5.6-6.3,12.3-6.3,19.6v17.1c0,18.8,15.3,34.1,34.1,34.1h51.2
		c18.8,0,34.1-15.3,34.1-34.1v-17.1c0-7.3-2.3-14-6.3-19.6c1.7-3.6,3.7-7.8,6-12.5c6.6-13.6,14.8-30.5,21.6-47.3
		c11,2.9,20.9,4.3,29.7,4.3c40,0,58.9-25.9,65.9-39.2C451.6,199.7,445,148.3,418.8,127.8z M94.4,227.5
		c-15.2-28.7-10.6-70.7,9.3-86.3c20.1-15.8,41.2-14.8,56.6-10.4c-15.6,4.2-34.1,11.9-44,25.8c-7.4,10.3-9.3,22.3-5.7,35.8
		c2.8,10.8,9.5,18.9,19.1,23.4c10.2,4.8,22.1,4.9,32.7,2.9c-0.1,1.1-0.3,2.2-0.3,3.3c0,9.1,2.7,20.4,6.8,32.5
		C134.5,263,108.2,253.6,94.4,227.5z M298.6,366.8c0,9.4-7.7,17.1-17.1,17.1h-51.2c-9.4,0-17.1-7.7-17.1-17.1v-17.1
		c0-4.6,1.9-8.8,4.9-11.9l0.3-0.3c0.8-0.8,1.7-1.5,2.6-2.1c0.1-0.1,0.3-0.1,0.4-0.2c0.8-0.5,1.6-0.9,2.5-1.3
		c0.5-0.2,0.9-0.3,1.4-0.4c0.6-0.2,1.1-0.4,1.7-0.5c1.1-0.2,2.2-0.3,3.3-0.3h51.2c1.1,0,2.3,0.1,3.4,0.3c0.6,0.1,1.1,0.3,1.6,0.5
		s1,0.3,1.5,0.5c0.8,0.3,1.5,0.7,2.2,1.2c0.2,0.1,0.4,0.2,0.6,0.4c0.9,0.6,1.8,1.3,2.6,2.1l0.3,0.2c3,3.1,4.9,7.3,4.9,11.9V366.8z
		 M300.1,310.2c-1.5,3.1-2.9,6-4.2,8.6c-0.2-0.1-0.4-0.1-0.5-0.2c-1.5-0.7-3-1.1-4.6-1.6c-0.7-0.2-1.4-0.5-2.1-0.7
		c-2.3-0.5-4.7-0.8-7.1-0.8h-51.2c-2.5,0-4.8,0.3-7.1,0.8c-0.7,0.2-1.4,0.4-2,0.6c-1.6,0.4-3.2,0.9-4.7,1.6
		c-0.2,0.1-0.3,0.1-0.5,0.2c-1.3-2.6-2.7-5.5-4.2-8.6c-12.2-25.1-32.6-67.1-32.6-88.4c0-11.1,8.9-22.6,23.9-30.9
		c17.3-9.5,37.6-11.4,48.2-4.6l4.6,2.9l4.6-2.9c10.7-6.8,31-4.9,48.3,4.6c15,8.2,23.9,19.8,23.9,30.9
		C332.8,243,312.3,285.1,300.1,310.2z M417.6,227.5c-13.8,26.1-40.1,35.5-74.6,26.9c4.1-12.1,6.8-23.5,6.8-32.5
		c0-1.1-0.2-2.2-0.3-3.3c10.6,2,22.5,1.9,32.7-2.9c9.7-4.5,16.3-12.6,19.1-23.4c3.5-13.4,1.6-25.5-5.8-35.8
		c-10-13.9-28.4-21.6-44-25.8c15.4-4.4,36.5-5.4,56.6,10.4C428.2,156.8,432.7,198.8,417.6,227.5z"/>
	<circle class="st0" cx="217.6" cy="251.7" r="12.8"/>
	<circle class="st0" cx="294.4" cy="251.7" r="12.8"/>
	<circle class="st0" cx="230.4" cy="358.3" r="8.5"/>
	<circle class="st0" cx="281.6" cy="358.3" r="8.5"/>
</g>
</svg>
