<?xml version="1.0" encoding="utf-8"?>
<!-- Generator: Adobe Illustrator 20.0.0, SVG Export Plug-In . SVG Version: 6.00 Build 0)  -->
<svg version="1.1" id="Layer_1" xmlns="http://www.w3.org/2000/svg" xmlns:xlink="http://www.w3.org/1999/xlink" x="0px" y="0px"
	 viewBox="0 0 50 50" style="enable-background:new 0 0 50 50;" xml:space="preserve">
<style type="text/css">
	.st0{fill:#3C3C3C;}
	.st1{fill:none;}
</style>
<g>
	<path class="st0" d="M29.3,33.5c0.1,0.1,0.1,0.2,0.1,0.2c1.3,0.8,1.4,2,1.3,3.4c0,0.5,0,1,0,1.4c0,0.4-0.1,0.7-0.5,0.7
		c-0.4,0-0.6-0.3-0.6-0.7c0-0.7-0.1-1.5,0-2.2c0-0.6-0.2-1-0.6-1.4c-0.7-0.8-1.4-1.2-2.4-1c-0.2,0-0.4,0-0.5,0.1
		c-0.6,0.5-1.2,1.1-1.8,1.6c-0.1,0.1-0.2,0.4-0.2,0.7c0,0.7,0,1.5,0,2.2c0,0.5-0.1,0.8-0.6,0.8c-0.5,0-0.6-0.4-0.6-0.9
		c0-0.3,0.1-0.5,0.1-0.8c-0.2-1.6,0.2-3,1.7-3.9c0.1-0.1,0.1-0.2,0.2-0.3c-0.6-0.5-1.2-0.6-1.9-0.2c-4.6,2.4-9.5,2.8-14.5,1.6
		C8.2,35,8,34.9,7.7,34.8c-0.2,1-0.5,1.9-0.6,2.9c-0.1,0.9-0.6,1.4-1.4,1.6c-0.4,0.1-0.9,0.4-1.3,0.4c-0.3,0-0.8-0.1-1-0.4
		c-0.2-0.4,0.2-0.7,0.6-0.8c1.5-0.2,2.2-1,2.2-2.5c0-0.5,0.4-1.2,0.2-1.6C6.2,34.1,5.5,34,5,33.7c-0.9-0.5-1.8-1-2.7-1.6
		c-0.5-0.3-0.6-0.6-0.4-1.2c1-2.9,2.9-4.9,6-5.7c0.6-0.2,0.8-0.4,0.9-1c0.7-3.2,1.4-6.3,2.2-9.5c0.1-0.3,0.3-0.5,0.5-0.8
		c0.2,0.2,0.6,0.3,0.7,0.5c0.9,1.3,1.7,2.7,2.5,4c0.1,0.2,0.3,0.4,0.5,0.7c0.3-1.3,0.6-2.5,0.9-3.6c0.1-0.5,0.2-0.9,0.3-1.4
		c0.1-0.3,0.4-0.5,0.6-0.8c0.2,0.2,0.6,0.3,0.7,0.6c1.7,2.6,3.3,5.3,5,7.9c0.7,1,1.3,2.1,2,3.1c0.2,0.4,0.5,0.5,0.9,0.4
		c1.7-0.5,3.5-0.6,5.3-0.1c0.2,0.1,0.5-0.1,0.6-0.2c3.1-4.8,7.7-7.2,13.1-8.2c0.1,0,0.3,0,0.4,0c0.5-0.1,0.9,0.1,1,0.7
		c0.1,0.5-0.2,0.8-0.7,0.9c-1.1,0.2-2.1,0.5-3.2,0.8c-2.2,0.7-4.2,1.7-6,3.2c-0.1,0.1-0.3,0.3-0.4,0.5c0.2-0.1,0.3-0.1,0.5-0.2
		c3.7-1.4,7.5-1.5,11.4-0.8c0.6,0.1,0.9,0.5,0.8,1c-0.1,0.5-0.5,0.7-1.2,0.6c-1.8-0.1-3.5-0.4-5.3-0.4c-2.9,0.1-5.6,0.9-8,2.6
		c-0.3,0.2-0.6,0.5-1,0.7c1,0.8,1.7,1.7,2,2.9c0.4,1.5-0.9,3.3-2.3,3.3c-0.2,0-0.4,0-0.6-0.1c-0.7-0.5-1.2-0.2-1.8,0.3
		C30,33.1,29.7,33.3,29.3,33.5z M20.5,27.6c0.2,0.4,0.4,0.7,0.6,1c0.3,0.6,0.3,0.8-0.3,1.1c-0.9,0.5-1.9,0.9-2.8,1.3
		c-0.5,0.2-0.8,0.2-1.1-0.4c-0.6-1.2-1.1-2.5-1.7-3.7c-0.1-0.2-0.3-0.4-0.4-0.4c-1.5-0.2-3-0.3-4.5-0.5c-0.5,0-0.6,0.2-0.7,0.6
		C9,28.8,8.5,30.9,8,33c-0.1,0.6,0,0.8,0.6,0.9c5.1,1.3,9.9,0.6,14.5-1.9c0.4-0.2,0.7-0.3,1.1,0c1.9,1.2,4.9,1.2,6.2-1
		c0.2-0.4,0.6-0.4,0.9-0.1c0.2,0.1,0.3,0.2,0.5,0.3c0.4,0.2,0.9,0.5,1.3,0.1c0.5-0.4,0.8-0.9,0.6-1.6c-0.4-1.4-1.4-2.3-2.6-2.9
		c-2.2-1-4.3-0.8-6.4,0.2c-1.3,0.6-2.6,1-4.1,0.6C20.7,27.6,20.6,27.6,20.5,27.6z M19.8,28.8c-2.7-4.2-5.3-8.4-7.9-12.6
		c-0.1,0-0.2,0-0.2,0.1c0,0.3,0,0.7,0.1,1c1.8,4,3.7,7.9,5.6,11.9c0.1,0.2,0.2,0.4,0.3,0.6C18.4,29.5,19,29.2,19.8,28.8z M6.7,33.4
		c0.5-2.4,1.1-4.6,1.6-6.9c-2.1,0.2-4.8,2.7-5.2,4.6c0,0.1,0,0.3,0.1,0.4C4.4,32.1,5.5,32.7,6.7,33.4z M23.9,26
		c-2.2-3.5-4.4-6.9-6.5-10.3c-0.1,0-0.2,0.1-0.2,0.1c0,0.3,0,0.6,0.1,0.8c1.5,3.2,3,6.3,4.4,9.5c0.2,0.5,0.6,0.6,1.1,0.5
		C23.1,26.5,23.5,26.2,23.9,26z M11.4,19c-0.1,0-0.1,0-0.2,0c-0.4,1.9-0.9,3.8-1.3,5.8c1.5,0.2,2.9,0.3,4.4,0.5
		C13.3,23.1,12.4,21.1,11.4,19z M16.8,18.3c-0.1,0-0.1,0-0.2,0c-0.1,0.6-0.3,1.2-0.4,1.8c0,0.4,0,0.8,0.2,1.1
		c0.9,1.5,1.8,2.9,2.7,4.4c0.3,0.5,0.7,0.7,1.3,0.6C19.2,23.5,18,20.9,16.8,18.3z"/>
	<path class="st1" d="M16.8,18.3c1.2,2.6,2.4,5.2,3.7,7.9c-0.7,0.1-1-0.1-1.3-0.6c-0.9-1.5-1.8-2.9-2.7-4.4
		c-0.2-0.3-0.2-0.8-0.2-1.1c0.1-0.6,0.2-1.2,0.4-1.8C16.7,18.3,16.7,18.3,16.8,18.3z"/>
</g>
</svg>
